G04 start of page 8 for group -4079 idx -4079 *
G04 Title: (unknown), topsilk *
G04 Creator: pcb 20140316 *
G04 CreationDate: Wed 02 Dec 2015 10:32:41 PM GMT UTC *
G04 For: ndholmes *
G04 Format: Gerber/RS-274X *
G04 PCB-Dimensions (mil): 500.00 500.00 *
G04 PCB-Coordinate-Origin: lower left *
%MOIN*%
%FSLAX25Y25*%
%LNTOPSILK*%
%ADD28C,0.0100*%
G54D28*X500Y49500D02*X49500D01*
Y500D01*
X500D02*Y49500D01*
X49500Y500D02*X500D01*
X14500Y41500D02*Y37500D01*
X16500D01*
X17700Y41500D02*X19700D01*
X18700D02*Y37500D01*
X21400D02*X22900D01*
X20900Y38000D02*X21400Y37500D01*
X20900Y41000D02*Y38000D01*
Y41000D02*X21400Y41500D01*
X22900D01*
X24100Y41000D02*X24600Y41500D01*
X26100D01*
X26600Y41000D01*
Y40000D01*
X24100Y37500D02*X26600Y40000D01*
X24100Y37500D02*X26600D01*
X27800D02*X29800Y39500D01*
Y41000D02*Y39500D01*
X29300Y41500D02*X29800Y41000D01*
X28300Y41500D02*X29300D01*
X27800Y41000D02*X28300Y41500D01*
X27800Y41000D02*Y40000D01*
X28300Y39500D01*
X29800D01*
X31000Y37500D02*X33000Y39500D01*
Y41000D02*Y39500D01*
X32500Y41500D02*X33000Y41000D01*
X31500Y41500D02*X32500D01*
X31000Y41000D02*X31500Y41500D01*
X31000Y41000D02*Y40000D01*
X31500Y39500D01*
X33000D01*
X34200Y38000D02*X34700Y37500D01*
X34200Y41000D02*Y38000D01*
Y41000D02*X34700Y41500D01*
X35700D01*
X36200Y41000D01*
Y38000D01*
X35700Y37500D02*X36200Y38000D01*
X34700Y37500D02*X35700D01*
X34200Y38500D02*X36200Y40500D01*
X19000Y14000D02*Y13000D01*
X20000Y12000D01*
X21000Y13000D01*
Y14000D02*Y13000D01*
X22700Y12000D02*X23700D01*
X23200Y16000D02*Y12000D01*
X22200Y15000D02*X23200Y16000D01*
X24900Y12000D02*X25400D01*
X27100D02*X28100D01*
X27600Y16000D02*Y12000D01*
X26600Y15000D02*X27600Y16000D01*
X36496Y32000D02*Y18000D01*
X15504Y32000D02*X36496D01*
X13504Y18000D02*Y30000D01*
X36496Y18000D02*X13504D01*
Y30000D02*X15504Y32000D01*
X24607Y3745D02*X25393D01*
X24607Y9255D02*X25393D01*
M02*
