G04 start of page 9 for group -4078 idx -4078 *
G04 Title: (unknown), bottomsilk *
G04 Creator: pcb 20140316 *
G04 CreationDate: Wed 02 Dec 2015 10:32:41 PM GMT UTC *
G04 For: ndholmes *
G04 Format: Gerber/RS-274X *
G04 PCB-Dimensions (mil): 500.00 500.00 *
G04 PCB-Coordinate-Origin: lower left *
%MOIN*%
%FSLAX25Y25*%
%LNBOTTOMSILK*%
%ADD29C,0.0100*%
G54D29*X17500Y9500D02*Y5000D01*
X15000D02*X20000D01*
X16000Y3500D02*X19000D01*
X17000Y2000D02*X18000D01*
X33500Y7000D02*X33000Y6500D01*
X33500Y7000D02*X35000D01*
X35500Y6500D02*X35000Y7000D01*
X35500Y5500D02*Y6500D01*
Y5500D02*X35000Y5000D01*
X33500D02*X35000D01*
X33500D02*X33000Y4500D01*
Y3500D02*Y4500D01*
X33500Y3000D02*X33000Y3500D01*
X33500Y3000D02*X35000D01*
X35500Y3500D02*X35000Y3000D01*
X31300D02*Y7000D01*
X29800D02*X29300Y6500D01*
Y3500D02*Y6500D01*
X29800Y3000D02*X29300Y3500D01*
X29800Y3000D02*X31800D01*
X29800Y7000D02*X31800D01*
X28100Y3000D02*Y6500D01*
X27600Y7000D01*
X26100D02*X27600D01*
X26100D02*X25600Y6500D01*
Y3000D02*Y6500D01*
Y5000D02*X28100D01*
X35500Y23000D02*Y26500D01*
X35000Y27000D01*
X33500D02*X35000D01*
X33500D02*X33000Y26500D01*
Y23000D02*Y26500D01*
Y25000D02*X35500D01*
X31800Y23500D02*X31300Y23000D01*
X31800Y23500D02*Y26500D01*
X31300Y27000D01*
X30300D02*X31300D01*
X30300D02*X29800Y26500D01*
Y23500D02*Y26500D01*
X30300Y23000D02*X29800Y23500D01*
X30300Y23000D02*X31300D01*
X31800Y24000D02*X29800Y26000D01*
X33500Y17500D02*X33000Y17000D01*
X33500Y17500D02*X35000D01*
X35500Y17000D02*X35000Y17500D01*
X35500Y16000D02*Y17000D01*
Y16000D02*X35000Y15500D01*
X33500D02*X35000D01*
X33500D02*X33000Y15000D01*
Y14000D02*Y15000D01*
X33500Y13500D02*X33000Y14000D01*
X33500Y13500D02*X35000D01*
X35500Y14000D02*X35000Y13500D01*
X29800D02*X31300D01*
X31800Y14000D02*X31300Y13500D01*
X31800Y14000D02*Y17000D01*
X31300Y17500D01*
X29800D02*X31300D01*
X28600Y13500D02*Y17500D01*
X26600Y13500D02*X28600D01*
X20500Y24000D02*Y27000D01*
Y24000D02*X19500Y23000D01*
X18500Y24000D01*
Y27000D01*
X17300Y26500D02*X16800Y27000D01*
X15800D02*X16800D01*
X15800D02*X15300Y26500D01*
Y23500D02*Y26500D01*
X15800Y23000D02*X15300Y23500D01*
X15800Y23000D02*X16800D01*
X17300Y23500D02*X16800Y23000D01*
X15300Y25000D02*X16800D01*
X21000Y34000D02*Y37000D01*
Y34000D02*X20000Y33000D01*
X19000Y34000D01*
Y37000D01*
X17800Y36500D02*X17300Y37000D01*
X15800D02*X17300D01*
X15800D02*X15300Y36500D01*
Y35500D02*Y36500D01*
X17800Y33000D02*X15300Y35500D01*
Y33000D02*X17800D01*
X35500Y44000D02*Y47000D01*
Y44000D02*X34500Y43000D01*
X33500Y44000D01*
Y47000D01*
X30300Y43000D02*X31800D01*
X32300Y43500D02*X31800Y43000D01*
X32300Y43500D02*Y46500D01*
X31800Y47000D01*
X30300D02*X31800D01*
X27100Y43000D02*X28600D01*
X29100Y43500D02*X28600Y43000D01*
X29100Y43500D02*Y46500D01*
X28600Y47000D01*
X27100D02*X28600D01*
X20500Y44000D02*Y47000D01*
Y44000D02*X19500Y43000D01*
X18500Y44000D01*
Y47000D01*
X15800Y43000D02*X16800D01*
X16300D02*Y47000D01*
X17300Y46000D02*X16300Y47000D01*
X35500Y33000D02*Y36500D01*
X35000Y37000D01*
X33500D02*X35000D01*
X33500D02*X33000Y36500D01*
Y33000D02*Y36500D01*
Y35000D02*X35500D01*
X30300Y33000D02*X31300D01*
X30800D02*Y37000D01*
X31800Y36000D02*X30800Y37000D01*
X20500Y14500D02*Y17500D01*
Y14500D02*X19500Y13500D01*
X18500Y14500D01*
Y17500D01*
X17300Y15500D02*X15300Y17500D01*
X14800Y15500D02*X17300D01*
X15300Y13500D02*Y17500D01*
M02*
