G04 start of page 2 for group 0 idx 0 *
G04 Title: (unknown), component *
G04 Creator: pcb 20110918 *
G04 CreationDate: Sun 08 May 2016 03:03:44 AM GMT UTC *
G04 For: petersen *
G04 Format: Gerber/RS-274X *
G04 PCB-Dimensions: 50000 50000 *
G04 PCB-Coordinate-Origin: lower left *
%MOIN*%
%FSLAX25Y25*%
%LNTOP*%
%ADD17C,0.0380*%
%ADD16R,0.0512X0.0512*%
%ADD15R,0.0100X0.0100*%
%ADD14R,0.0117X0.0117*%
%ADD13C,0.0600*%
%ADD12C,0.0100*%
%ADD11C,0.0001*%
G54D11*G36*
X30500Y4500D02*X26000D01*
Y48000D01*
X30500D01*
Y4500D01*
G37*
G36*
X24000Y2000D02*X15000D01*
Y21500D01*
X24000D01*
Y2000D01*
G37*
G36*
X35000Y28500D02*X26000D01*
Y48000D01*
X35000D01*
Y28500D01*
G37*
G54D12*X40000Y18500D02*Y15000D01*
X16754Y23030D02*X14530D01*
X21500Y6543D02*X21457Y6500D01*
X28500Y6543D02*X28543Y6500D01*
G54D13*X10000Y5000D02*X17500D01*
G54D12*X14530Y23030D02*X10000Y18500D01*
Y15000D01*
X33246Y23030D02*X35470D01*
X40000Y18500D01*
X33246Y21060D02*Y11754D01*
X40000Y5000D01*
X33246Y25000D02*X40000D01*
X33246Y26970D02*X35470D01*
X40000Y31500D01*
Y35000D01*
X16754Y25000D02*X10000D01*
X16754Y26970D02*X14530D01*
X10000Y31500D01*
Y35000D01*
X16754Y28940D02*Y38246D01*
X10000Y45000D01*
G54D13*X40000D02*X32000D01*
G54D13*X10000Y5000D03*
X40000Y45000D03*
Y35000D03*
Y25000D03*
Y15000D03*
Y5000D03*
X10000Y35000D03*
Y25000D03*
Y15000D03*
G54D11*G36*
X7000Y48000D02*Y42000D01*
X13000D01*
Y48000D01*
X7000D01*
G37*
G54D14*X15605Y25000D02*X17903D01*
X15605Y23030D02*X17903D01*
X15605Y21060D02*X17903D01*
G54D15*X16105Y25000D02*X17403D01*
X16105Y23030D02*X17403D01*
X16105Y21060D02*X17403D01*
G54D16*X21457Y6893D02*Y6107D01*
X28543Y6893D02*Y6107D01*
G54D14*X32097Y21060D02*X34395D01*
X32097Y23030D02*X34395D01*
G54D15*X32597Y21060D02*X33895D01*
X32597Y23030D02*X33895D01*
G54D14*X15605Y28940D02*X17903D01*
X15605Y26970D02*X17903D01*
G54D15*X16105Y28940D02*X17403D01*
X16105Y26970D02*X17403D01*
G54D14*X32097Y25000D02*X34395D01*
G54D15*X32597D02*X33895D01*
G54D14*X32097Y26970D02*X34395D01*
G54D15*X32597D02*X33895D01*
G54D14*X32097Y28940D02*X34395D01*
G54D15*X32597D02*X33895D01*
G54D17*M02*
