G04 start of page 6 for group -4063 idx -4063 *
G04 Title: (unknown), componentmask *
G04 Creator: pcb 20110918 *
G04 CreationDate: Sun 08 May 2016 03:03:44 AM GMT UTC *
G04 For: petersen *
G04 Format: Gerber/RS-274X *
G04 PCB-Dimensions: 50000 50000 *
G04 PCB-Coordinate-Origin: lower left *
%MOIN*%
%FSLAX25Y25*%
%LNTOPMASK*%
%ADD26R,0.0572X0.0572*%
%ADD25R,0.0177X0.0177*%
%ADD24C,0.0001*%
%ADD23C,0.0660*%
G54D23*X10000Y5000D03*
X40000Y45000D03*
Y35000D03*
Y25000D03*
Y15000D03*
Y5000D03*
X10000Y35000D03*
Y25000D03*
Y15000D03*
G54D24*G36*
X6700Y48300D02*Y41700D01*
X13300D01*
Y48300D01*
X6700D01*
G37*
G54D25*X15605Y25000D02*X17903D01*
X15605Y23030D02*X17903D01*
X15605Y21060D02*X17903D01*
X16105Y25000D02*X17403D01*
X16105Y23030D02*X17403D01*
X16105Y21060D02*X17403D01*
G54D26*X21457Y6893D02*Y6107D01*
X28543Y6893D02*Y6107D01*
G54D25*X32097Y21060D02*X34395D01*
X32097Y23030D02*X34395D01*
X32597Y21060D02*X33895D01*
X32597Y23030D02*X33895D01*
X15605Y28940D02*X17903D01*
X15605Y26970D02*X17903D01*
X16105Y28940D02*X17403D01*
X16105Y26970D02*X17403D01*
X32097Y25000D02*X34395D01*
X32597D02*X33895D01*
X32097Y26970D02*X34395D01*
X32597D02*X33895D01*
X32097Y28940D02*X34395D01*
X32597D02*X33895D01*
M02*
